# xmcd
#
# Track frame offsets:
#	150
#	21334
#	36551
#	54869
#	81077
#	97961
#	118291
#	134662
#	157196
#	181002
#	202670
#	221753
#	241371
#	259248
#	282501
#	303255
#
# Disc length: 4328 seconds
#
# Revision: 4
# Processed by: cddbd v1.5.2PL0 Copyright (c) Steve Scherf et al.
# Submitted via: EasyCDDAExtractor 12.0.7.1
#
DISCID=e810e610
DTITLE=Various Artist - The First Ladies Of Philadelphia Soul
DYEAR=1998
DGENRE=Soul
TTITLE0=The Jones Girls - Nights Over Eygpt
TTITLE1=Jean Carne - If You Wanna Go Back
TTITLE2=Dee Dee Sharp - Easy Money
TTITLE3=Patti Labelle - The Spirt's In It
TTITLE4=Jean Carne - Was That All It Was
TTITLE5=The Jones Girls - You're Gonna Make Me Love Somebody Else
TTITLE6=Frantique - Strut Your Funky Stuff
TTITLE7=Dee Dee Sharp - Nobody Could Ever Take Your Place
TTITLE8=Dexter Wansel Ft. Jean Carne - Sweetest Pain
TTITLE9=The Jones Girls - When I'm Gone
TTITLE10=Phyllis Hyman - Ain't You Had Enough Love
TTITLE11=Shirley Jones - Breaking Up
TTITLE12=MFSB Ft. Carla Benson - Tell Me Why
TTITLE13=Phyllis Hyman - Living All Alone
TTITLE14=Shirley Jones - She Knew About Me
TTITLE15=Patti Labelle - If Only You Knew
EXTD=MCCD 365
EXTT0=
EXTT1=
EXTT2=
EXTT3=
EXTT4=
EXTT5=
EXTT6=
EXTT7=
EXTT8=
EXTT9=
EXTT10=
EXTT11=
EXTT12=
EXTT13=
EXTT14=
EXTT15=
PLAYORDER=
